<svg id="Layer_1" data-name="Layer 1" xmlns="http://www.w3.org/2000/svg" viewBox="0 0 371.59 212.34"><defs><style>.cls-1{fill:#fff;}</style></defs><path class="cls-1" d="M340.14,396.35V608.69H711.73V396.35ZM486.26,573.28l-47.48-47.47-10,10,30.77,30.77-6.73,6.73-30.78-30.77-9.8,9.82,14.22,14.22-6.75,6.73-14.22-14.22-14.22,14.22-6.73-6.74,64-64-9.67-9.67-47.62,47.62-6.73-6.73,47.62-47.62-10.05-10.05L391.29,506.9l-6.73-6.74,30.83-30.83L384.56,438.5l6.73-6.74,70.77,70.76-16.54,16.55L493,566.55ZM519.34,540,417.88,438.5l6.74-6.74L526.08,533.23Zm0-33.2L451.08,438.5l6.74-6.74L526.08,500Zm0-33.09L484.18,438.5l6.73-6.74,35.17,35.17Zm146.73,66.07q0,18.32-8.2,27.8T633.81,577q-14.91,0-22.74-8.17t-7.83-23.73v-66.9H588.8v-9.29a43.91,43.91,0,0,0,36-40.9h9v40.39h27.26v9.8H633.62v62.85c-.11,5.1.86,9.23,2.76,11.6a10.32,10.32,0,0,0,7.76,3.91A10,10,0,0,0,653,552c2.39-3.5,2.66-7.21,3.18-12.27l.27-2.52h9.61Z" transform="translate(-340.14 -396.35)"/></svg>